<svg viewBox="0 0 32 32" fill="none" xmlns="http://www.w3.org/2000/svg"><rect width="32" height="32" rx="8" fill="#5282FF"/><path fill-rule="evenodd" clip-rule="evenodd" d="M8 25.05V9.45c0-.517.431-.95.96-.95h1.553v13.934c0 .583.485 1.066 1.082 1.066h9.17c.598 0 1.083-.483 1.083-1.066V8.5h1.556c.528 0 .96.433.96.95v15.6a.95.95 0 0 1-.96.95H8.96a.95.95 0 0 1-.96-.95Zm3.773-5.917a.63.63 0 0 1 .628-.633h3.782a.63.63 0 0 1 .627.633.628.628 0 0 1-.627.617H12.4a.628.628 0 0 1-.628-.617Zm0-2.5a.63.63 0 0 1 .628-.633h7.558a.63.63 0 0 1 .628.633.628.628 0 0 1-.628.617h-7.558a.628.628 0 0 1-.628-.617Zm0-2.5a.63.63 0 0 1 .628-.633h7.558a.63.63 0 0 1 .628.633.628.628 0 0 1-.628.617h-7.558a.628.628 0 0 1-.628-.617ZM11.775 11V8.5h2.518l-.002-.617c0-1.033.848-1.883 1.89-1.883 1.042 0 1.89.85 1.89 1.883l-.002.617h2.518V11h-8.812Zm5.037-3.117a.633.633 0 0 0-.631-.633.633.633 0 0 0-.631.633.63.63 0 0 0 .631.617.63.63 0 0 0 .631-.617Z" fill="#fff"/></svg>
