<svg xmlns="http://www.w3.org/2000/svg" viewBox="0 0 1200 400">
  <defs>
    <linearGradient id="g3" x1="0%" y1="0%" x2="100%" y2="100%">
      <stop offset="0%" style="stop-color:#059669"/>
      <stop offset="50%" style="stop-color:#10b981"/>
      <stop offset="100%" style="stop-color:#34d399"/>
    </linearGradient>
  </defs>
  <rect width="1200" height="400" fill="url(#g3)"/>
  <circle cx="1050" cy="200" r="250" fill="rgba(255,255,255,0.05)"/>
  <circle cx="100" cy="100" r="150" fill="rgba(255,255,255,0.06)"/>
  <circle cx="600" cy="400" r="200" fill="rgba(255,255,255,0.04)"/>
  <!-- Грузовик доставки -->
  <g transform="translate(880, 120) scale(1.5)" fill="rgba(255,255,255,0.15)">
    <rect x="10" y="30" width="90" height="50" rx="5"/>
    <rect x="100" y="45" width="50" height="35" rx="5"/>
    <polygon points="100,45 130,25 150,25 150,45"/>
    <circle cx="40" cy="85" r="12"/>
    <circle cx="80" cy="85" r="12"/>
    <circle cx="130" cy="85" r="12"/>
    <circle cx="40" cy="85" r="5" fill="rgba(255,255,255,0.3)"/>
    <circle cx="80" cy="85" r="5" fill="rgba(255,255,255,0.3)"/>
    <circle cx="130" cy="85" r="5" fill="rgba(255,255,255,0.3)"/>
  </g>
  <!-- Коробки -->
  <g transform="translate(920, 270)" fill="rgba(255,255,255,0.1)">
    <rect x="0" y="0" width="40" height="40" rx="4"/>
    <rect x="50" y="10" width="35" height="30" rx="4"/>
    <rect x="20" y="-30" width="30" height="30" rx="4"/>
  </g>
</svg>
