<svg width="160" height="28" fill="none" xmlns="http://www.w3.org/2000/svg">
  <g clip-path="url(#clip0)">
    <path d="M14.0101 0C6.2755-.005.0051 6.2604 0 13.9899-.005 21.7245 6.2604 27.995 13.9899 28 21.7194 28.0051 27.995 21.7396 28 14.0101v-.0202C28 6.2654 21.7346 0 14.0101 0zm7.462 13.9899c0 4.1248-3.3423 7.467-7.462 7.4721C9.8853 21.467 6.533 18.1248 6.528 14c-.0051-4.1248 3.3371-7.4771 7.4619-7.4821 4.1248-.0051 7.4771 3.3371 7.4822 7.4619v.0101z" fill="#005BFF"/>
    <path d="M43.3936 2.8093c-3.7761 0-6.0172 2.0262-6.0172 5.1883 0 2.2104 1.1052 3.7761 2.9472 5.219l3.6533 2.8858c1.535 1.1973 2.2718 2.0876 2.2718 3.2849 0 1.4429-1.1052 2.5788-3.4077 2.5788-2.0876 0-4.1445-.9517-5.526-1.7499l-1.4429 3.0086c1.6885 1.0745 4.2059 1.9955 6.9382 1.9955 4.0831 0 6.8768-2.0876 6.8768-6.0172 0-2.456-1.1052-4.1445-3.3156-5.833l-3.8375-2.9472c-1.1359-.8903-1.6885-1.5657-1.6885-2.5481 0-1.136.7368-1.842 2.456-1.842 1.4429 0 3.0393.5219 4.3287 1.2587l1.4429-3.0393c-1.5043-.7675-3.4998-1.443-5.6795-1.443zm15.5342 7.3066c-4.5436 0-7.2452 3.2849-7.2452 7.5829 0 4.4822 2.8858 7.5215 7.3987 7.5215 3.4998 0 5.3725-1.9341 6.4163-3.377l-2.1183-1.9955c-.7061.9517-2.0262 2.4867-4.3594 2.4867-2.4253 0-4.1752-1.6578-4.298-4.1752h10.9906v-.4912c0-4.5743-2.456-7.5522-6.7847-7.5522zm-.1842 2.763c2.149 0 3.5919 1.1359 3.7147 3.1007h-7.5829c.3684-2.0569 1.842-3.1007 3.8682-3.1007zm12.8818-9.6091h-3.0086v21.49h3.0086v-21.49zm6.9854 0h-3.0086v21.49h3.0086v-21.49zm10.1476 6.8461c-4.5436 0-7.2452 3.2849-7.2452 7.5829 0 4.4822 2.8858 7.5215 7.3987 7.5215 3.4998 0 5.3725-1.9341 6.4163-3.377l-2.1183-1.9955c-.7061.9517-2.0262 2.4867-4.3594 2.4867-2.4253 0-4.1752-1.6578-4.298-4.1752h10.9906v-.4912c0-4.5743-2.456-7.5522-6.7847-7.5522zm-.1842 2.763c2.149 0 3.5919 1.1359 3.7147 3.1007H84.706c.3684-2.0569 1.842-3.1007 3.8682-3.1007zm17.7018-2.7323h-.215c-2.395 0-4.022 1.4122-4.697 3.5305h-.062v-3.1007h-3.0081v14.1834h3.0081v-6.2935c0-3.377 1.566-4.7892 4.513-4.7892h.461v-3.5305z" fill="#172133"/>
    <path d="M128.573 24.7598h3.5l-8.78-21.49h-2.948l-8.78 21.49h3.5l2.057-5.3418h9.394l2.057 5.3418zm-10.315-8.289l3.561-9.21 3.561 9.21h-7.122zm23.446-13.201h-7.337v21.49h3.193v-8.4732h4.144c4.268 0 6.662-2.8244 6.662-6.5084 0-3.7147-2.394-6.5084-6.662-6.5084zm-.429 10.0082h-3.715V6.2784h3.715c2.21 0 3.653 1.1973 3.653 3.4998s-1.443 3.4998-3.653 3.4998zM154.23 3.2698h-3.254v21.49h3.254v-21.49z" fill="#8D95A5"/>
  </g>
  <defs>
    <clipPath id="clip0">
      <path fill="#fff" d="M0 0h160v28H0z"/>
    </clipPath>
  </defs>
</svg>
